<svg width="152" height="152" viewBox="0 0 152 152" fill="none" xmlns="http://www.w3.org/2000/svg"><rect width="152" height="152" rx="8" fill="#EEE"/><path d="M27.671 99.657c-2.843-4.039-4.203-8.871-3.864-13.734V66.077c-.359-4.898.98-9.773 3.81-13.867 2.557-3.157 6.927-4.727 13.11-4.71 6.183.018 10.37 1.403 12.56 4.155 2.67 3.41 3.972 7.627 3.67 11.881v4.658H45.53v-5.055a25.397 25.397 0 0 0-.359-3.969 4.378 4.378 0 0 0-1.297-2.514 4.36 4.36 0 0 0-1.484-.796 4.482 4.482 0 0 0-1.69-.183 4.183 4.183 0 0 0-2.398.366c-.74.355-1.349.92-1.743 1.619a13.932 13.932 0 0 0-.938 5.821v25.193a12.19 12.19 0 0 0 1.076 5.821c.398.661.99 1.196 1.7 1.54.712.342 1.512.479 2.303.392a3.866 3.866 0 0 0 2.263-.379 3.646 3.646 0 0 0 1.6-1.58c.668-1.861.959-3.828.856-5.794v-5.293h11.428v4.578c.336 4.317-.86 8.617-3.395 12.199-2.43 2.911-6.625 4.34-12.587 4.34s-10.627-1.588-13.194-4.843ZM72.243 47.5h12.342L95 104.5H84.741l-1.849-12.594h-8.644l-2.083 12.513H61.75L72.243 47.5Zm9.504 37.24-3.28-22.909L75.21 84.74h6.536ZM103.614 56.09H95V47.5h28.5v8.59h-8.507v48.41h-11.406l.027-48.41Z" fill="#111"/></svg>