<svg width="28" height="28" viewBox="0 0 28 28" fill="none" xmlns="http://www.w3.org/2000/svg">
<g clip-path="url(#clip0_2403_1829)" filter="url(#filter0_d_2403_1829)">
<path d="M21.9 9.4H13.4V10.6H21.9L19.8 12.7L20.7 13.6L23.8 10.5C23.8974 10.3702 23.95 10.2123 23.95 10.05C23.95 9.88772 23.8974 9.72982 23.8 9.6L20.7 6.5L19.8 7.4L21.9 9.4Z" fill="black"/>
<path d="M12.1 19.4V13.2C12.0884 13.0447 12.0215 12.8987 11.9114 12.7886C11.8012 12.6785 11.6553 12.6116 11.5 12.6H7.09995C7.1051 12.9167 7.23318 13.2189 7.45712 13.4428C7.68106 13.6668 7.9833 13.7949 8.29995 13.8H10.8V18.8H7.09995C6.86319 18.8149 6.62585 18.7825 6.4017 18.7048C6.17756 18.6271 5.97109 18.5057 5.7943 18.3475C5.61751 18.1893 5.47393 17.9976 5.37189 17.7834C5.26986 17.5693 5.21142 17.337 5.19995 17.1V3.10001C5.19175 2.6373 5.3651 2.18977 5.68286 1.85331C6.00062 1.51686 6.43752 1.31824 6.89995 1.30001H10.8V6.30001H8.39995C8.0833 6.30516 7.78106 6.43324 7.55712 6.65718C7.33318 6.88112 7.2051 7.18336 7.19995 7.50001H11.6C11.7553 7.48846 11.9012 7.42154 12.0114 7.31142C12.1215 7.2013 12.1884 7.05531 12.2 6.90001V0.600012C12.1523 0.443872 12.0611 0.304534 11.9371 0.198285C11.8132 0.0920352 11.6616 0.0232649 11.5 1.23734e-05H7.09995C6.70593 -0.0133408 6.31315 0.0511002 5.94405 0.189651C5.57495 0.328202 5.23678 0.538145 4.94887 0.807477C4.66097 1.07681 4.42897 1.40025 4.26615 1.7593C4.10332 2.11835 4.01287 2.50598 3.99995 2.90001V16.8C3.97097 17.1977 4.02459 17.597 4.15743 17.9729C4.29026 18.3489 4.49945 18.6932 4.77183 18.9844C5.0442 19.2756 5.37388 19.5072 5.74012 19.6648C6.10637 19.8224 6.50126 19.9024 6.89995 19.9H11.5C11.5734 19.915 11.6494 19.9133 11.7221 19.895C11.7948 19.8767 11.8625 19.8423 11.9201 19.7942C11.9778 19.7462 12.0238 19.6859 12.055 19.6176C12.0861 19.5494 12.1015 19.475 12.1 19.4Z" fill="black"/>
</g>
<defs>
<filter id="filter0_d_2403_1829" x="0" y="0" width="28" height="28" filterUnits="userSpaceOnUse" color-interpolation-filters="sRGB">
<feFlood flood-opacity="0" result="BackgroundImageFix"/>
<feColorMatrix in="SourceAlpha" type="matrix" values="0 0 0 0 0 0 0 0 0 0 0 0 0 0 0 0 0 0 127 0" result="hardAlpha"/>
<feOffset dy="4"/>
<feGaussianBlur stdDeviation="2"/>
<feComposite in2="hardAlpha" operator="out"/>
<feColorMatrix type="matrix" values="0 0 0 0 0 0 0 0 0 0 0 0 0 0 0 0 0 0 0.25 0"/>
<feBlend mode="normal" in2="BackgroundImageFix" result="effect1_dropShadow_2403_1829"/>
<feBlend mode="normal" in="SourceGraphic" in2="effect1_dropShadow_2403_1829" result="shape"/>
</filter>
<clipPath id="clip0_2403_1829">
<rect width="20" height="20" fill="white" transform="translate(4)"/>
</clipPath>
</defs>
</svg>
