<svg width="198" height="38" viewBox="0 0 198 38" fill="none" xmlns="http://www.w3.org/2000/svg"><path d="M6.91 20.72v-2.26a143.265 143.265 0 0 1 20.17-1.33c0 .6 0 1.21-.06 1.82a25.518 25.518 0 0 1 6-1.82 16.67 16.67 0 0 0-31.99 3.26l5.88.33ZM28.08 24.23c-1.16 1.28-1.39 1.2-1.39 3.45v9.18A16.64 16.64 0 0 0 34.16 23a17.302 17.302 0 0 0-.32-3.1 33.109 33.109 0 0 0-5.76 4.33ZM7.2 25.72s-3.79-1.44-5.19-1.83a8.541 8.541 0 0 0-1.17-.28 16.65 16.65 0 0 0 8.68 14L7.2 25.72Z" fill="#FDC305"/><path d="M27.13 17.12A89.807 89.807 0 0 0 25.73.65s-.14-1.29-.89-.24a14.217 14.217 0 0 0-1.2 3.94 70.34 70.34 0 0 0-12.77.34C10.08 2 8.69.75 8.02 1c-.67.25-.72 3.31-.72 3.31l-.33 14.1a143.21 143.21 0 0 1 20.16-1.29Z" fill="#F06351"/><path d="M13.25 14c0-.09 1 .68 1.41.92.41.24.61.42.61.59 0 .17-.27.34-.63.34s-.91-.12-1-.27h1.23A8.34 8.34 0 0 1 13.25 14ZM20.73 14.11l-1.09 1.33c0 .06-.17.35.18.3a7.351 7.351 0 0 0 1.22-.29c.11 0 .07-.19-.11-.17-.18.02-.69.05-1 .11l.84-1.26s.07-.13-.04-.02ZM17.59 20.2a2.3 2.3 0 0 0 1.09-1c.28-.65 0-.91-.44-1a2.43 2.43 0 0 0-1.74.34c-.39.36-.34.72-.05 1a5.34 5.34 0 0 0 1.14.66Z" fill="#000"/><path d="M17.19 21.45a1.92 1.92 0 0 1-.46.6 1.73 1.73 0 0 1-1 .38 2.15 2.15 0 0 1-1.47-.43 2.3 2.3 0 0 1-.53-.44c-.1-.11-.222-.2-.36-.26 0 0 .75 4.1 2.57 4.75 1.82.65 2.14-.75 2.2-1.13a5.61 5.61 0 0 0-.82-3.23c-.02-.31-.03-.11-.13-.24Z" fill="#F06351"/><path d="M15.55 22.59a3.44 3.44 0 0 1-2.36-1.466.14.14 0 0 1 .03-.154.14.14 0 0 1 .2 0 3.26 3.26 0 0 0 2.11 1.3 2.091 2.091 0 0 0 1.63-1l.14-.19.1.21s.37.76 1 .8c.63.04 1.05-.41 1.61-1.28a.14.14 0 0 1 .2 0 .15.15 0 0 1 .05.2c-.64 1-1.27 1.44-1.88 1.4a1.55 1.55 0 0 1-1.12-.76 2.26 2.26 0 0 1-1.71.94Z" fill="#000"/><path d="M27.08 18.92a58.62 58.62 0 0 0-5.07 5.19A31.633 31.633 0 0 1 16.72 29c-.22-.53-1.62-1.51-1.62-1.51s-3.13-2.14-5.18-3.82a34.138 34.138 0 0 1-3.13-3l-2-.11a22.57 22.57 0 0 0 12 8.8c.86-.14 3.27-1.86 5.07-3.26a58.13 58.13 0 0 0 5.94-5.89 6.151 6.151 0 0 0 1.14-2c-1.1.39-1.86.71-1.86.71Z" fill="#F06351"/><g fill="#111"><path d="M97.425 26.343a6.864 6.864 0 0 1-1.264-4.307V15.65a6.95 6.95 0 0 1 1.185-4.384c.87-1 2.213-1.462 4.189-1.462s3.24.462 4.03 1.308a5.426 5.426 0 0 1 1.186 3.769v1.538h-3.873v-1.769a3.675 3.675 0 0 0-.237-1.538 1.12 1.12 0 0 0-.456-.473 1.164 1.164 0 0 0-.65-.143c-.553 0-.949.154-1.107.539a4.862 4.862 0 0 0-.237 1.692v8.23a3.127 3.127 0 0 0 .316 1.616c.158.385.554.539 1.107.539.553 0 .869-.154 1.027-.539.18-.52.26-1.067.237-1.615v-1.846h3.873v1.538a5.773 5.773 0 0 1-1.186 3.846c-.79.923-2.134 1.385-4.03 1.385-1.897-.077-3.32-.539-4.11-1.539ZM111.413 10.036h4.505l3.319 17.538h-3.635l-.632-3.692h-2.608l-.632 3.692h-3.715l3.398-17.538Zm3.241 11.538-.949-6.846-.948 6.846h1.897ZM122.003 12.959h-2.687v-2.923h9.405v2.846h-2.687v14.692h-4.031V12.96ZM135.913 10.036h6.954v1.846h-4.504v5.77h3.635v1.768h-3.635v6.462h4.504v1.77h-7.033V10.035h.079ZM144.922 10.036h1.739l5.137 11.615V10.036h2.054v17.538h-1.58l-5.216-12v12h-2.134V10.036ZM156.223 10.036h6.955v1.846h-4.505v5.77h3.636v1.768h-3.636v6.462h4.505v1.77h-6.955V10.035ZM165.233 10.036h3.635a6.454 6.454 0 0 1 4.031 1.077c.869.692 1.264 1.923 1.264 3.538 0 2.23-.711 3.616-2.213 4.077l2.529 8.77h-2.45l-2.371-8.232h-1.975v8.231h-2.529V10.036h.079Zm3.477 7.538a3.523 3.523 0 0 0 2.292-.615c.474-.385.711-1.154.711-2.308a4.84 4.84 0 0 0-.237-1.692 1.975 1.975 0 0 0-.869-.923 3.692 3.692 0 0 0-1.739-.308h-1.106v5.77h.948v.076ZM177.324 26.267a7.614 7.614 0 0 1-1.106-4.462v-5.846c-.02-1.115.113-2.227.395-3.308a3.91 3.91 0 0 1 1.502-2c.882-.508 1.9-.75 2.924-.692 1.659 0 2.845.385 3.556 1.23a5.767 5.767 0 0 1 1.106 3.847v.615h-2.37v-.538a11.07 11.07 0 0 0-.159-1.923 1.528 1.528 0 0 0-.632-1 2.491 2.491 0 0 0-1.501-.385 2.417 2.417 0 0 0-1.581.462 1.734 1.734 0 0 0-.632 1.23 14.024 14.024 0 0 0-.158 2.077v6.539a6.816 6.816 0 0 0 .474 2.923c.316.615.948.846 1.897.846.374.045.754-.018 1.091-.182.338-.165.618-.422.805-.741a6.909 6.909 0 0 0 .554-3.077v-1.23h-2.292v-1.77h4.583v8.692h-1.58l-.237-2a3.143 3.143 0 0 1-1.226 1.658 3.287 3.287 0 0 1-2.014.573 4.047 4.047 0 0 1-1.899-.352 3.938 3.938 0 0 1-1.5-1.186ZM190.838 21.42l-3.872-11.307h2.371l2.766 8.461 2.687-8.461h2.371l-3.873 11.307v6.154h-2.371V21.42h-.079Z"/></g></svg>
